<svg width="200" height="200" viewBox="0 0 200 200" fill="none" xmlns="http://www.w3.org/2000/svg">
<g clip-path="url(#clip0_4_149)">
<path d="M41.7968 74.2189C41.7968 106.528 68.0816 132.813 100.391 132.813C132.7 132.813 158.984 106.528 158.984 74.2189C158.984 41.9099 132.7 15.625 100.391 15.625C68.0816 15.625 41.7968 41.9099 41.7968 74.2189ZM100.391 23.4375C128.392 23.4375 151.172 46.2174 151.172 74.2189C151.172 102.22 128.392 125 100.391 125C72.3891 125 49.6093 102.22 49.6093 74.2189C49.6093 46.2174 72.3891 23.4375 100.391 23.4375Z" fill="white"/>
<path d="M104.297 3.90626C104.297 6.06385 102.548 7.81251 100.391 7.81251C98.233 7.81251 96.4844 6.06385 96.4844 3.90626C96.4844 1.74866 98.233 0 100.391 0C102.548 0 104.297 1.74866 104.297 3.90626Z" fill="white"/>
<path d="M81.9809 2.30255C49.121 10.6903 26.1718 40.2634 26.1718 74.2188C26.1718 95.3081 35.0387 115.18 50.6042 129.253L27.0705 170.728C26.3137 172.063 26.4083 173.717 27.3116 174.956C28.2149 176.197 29.7591 176.793 31.2621 176.48L57.9879 170.931L67.3812 197.4C67.8909 198.841 69.1955 199.849 70.7183 199.985C72.2412 200.121 73.7014 199.353 74.4567 198.024L100.391 152.431L126.323 198.024C127.022 199.253 128.322 199.999 129.717 199.999C129.831 199.999 129.947 199.994 130.061 199.985C131.584 199.849 132.889 198.839 133.4 197.4L142.792 170.931L169.518 176.48C171.019 176.792 172.565 176.195 173.468 174.956C174.373 173.717 174.466 172.063 173.709 170.728L150.176 129.253C165.741 115.18 174.608 95.3081 174.608 74.2188C174.608 40.2634 151.659 10.6903 118.8 2.30255C116.708 1.76849 114.583 3.03039 114.049 5.12085C113.515 7.21131 114.777 9.33839 116.867 9.87245C146.265 17.3767 166.797 43.837 166.797 74.2188C166.797 111.196 136.766 140.625 100.391 140.625C63.9892 140.625 33.9843 111.171 33.9843 74.2188C33.9843 43.837 54.515 17.3767 83.9126 9.87245C86.0031 9.33839 87.265 7.21131 86.7325 5.12085C86.1984 3.03039 84.0728 1.76849 81.9809 2.30255ZM71.8887 186.74L64.212 165.108C63.5589 163.268 61.6485 162.192 59.7366 162.589L38.1255 167.076L56.7504 134.252C67.6101 142.146 80.4687 146.956 93.84 148.146L71.8887 186.74ZM141.043 162.589C139.133 162.192 137.221 163.268 136.568 165.108L128.893 186.74L106.94 148.146C120.313 146.956 133.17 142.146 144.031 134.252L162.656 167.076L141.043 162.589Z" fill="white"/>
<g clip-path="url(#clip1_4_149)">
<path d="M114.567 68.5666L118.023 68.3476C118.029 68.3471 118.035 68.3467 118.042 68.3462C120.505 68.1384 122.715 66.8482 124.107 64.8053L126.84 60.7968C129.218 57.307 130.139 53.092 129.433 48.9286C129.294 48.1109 128.876 47.3574 128.256 46.8076C127.635 46.2574 126.837 45.9325 126.009 45.893C121.789 45.6911 117.717 47.1115 114.537 49.8908L110.885 53.0839C109.024 54.7108 108.008 57.0602 108.097 59.5307C108.097 59.5366 108.097 59.5428 108.098 59.5491L108.295 63.0061C108.372 64.3538 107.878 65.6836 106.942 66.6521L78.4089 95.9641C77.6451 96.7607 77.2506 97.8535 77.2986 99.0414C77.3516 100.349 77.9516 101.634 78.9039 102.478C79.7642 103.24 80.9468 103.675 82.1289 103.675C82.2554 103.675 82.382 103.67 82.5081 103.659C83.6933 103.565 84.7314 103.042 85.4342 102.183L111.108 70.3492C111.959 69.3017 113.22 68.6519 114.567 68.5666ZM109.737 69.2398L84.0658 101.071C83.6736 101.551 83.0704 101.846 82.3676 101.902C81.5315 101.969 80.6744 101.691 80.0739 101.158C79.4734 100.626 79.0946 99.8079 79.061 98.9701C79.0323 98.2659 79.2526 97.6318 79.6772 97.1893L108.208 67.8795C109.487 66.556 110.16 64.7434 110.056 62.906L109.859 59.458C109.792 57.5242 110.589 55.6855 112.046 54.4114L115.698 51.2183C118.533 48.7406 122.165 47.4754 125.925 47.654C126.353 47.6747 126.765 47.8425 127.086 48.1271C127.407 48.4111 127.623 48.8007 127.695 49.223C128.324 52.9349 127.502 56.6922 125.382 59.8031L122.65 63.8121C121.56 65.4116 119.83 66.4227 117.902 66.5883L114.455 66.8064C112.619 66.9231 110.9 67.809 109.737 69.2398Z" fill="white"/>
<path d="M128.036 95.7415L108.904 78.3165C108.544 77.9884 107.987 78.0144 107.659 78.3744C107.331 78.7343 107.357 79.2921 107.717 79.6202L126.843 97.0412C127.298 97.4617 127.556 98.0815 127.57 98.7861C127.587 99.6244 127.258 100.463 126.69 101.031C126.123 101.598 125.285 101.928 124.445 101.911C123.741 101.897 123.121 101.639 122.705 101.189L105.657 82.4727C105.329 82.1123 104.771 82.0867 104.412 82.4143C104.052 82.7424 104.026 83.3002 104.354 83.6602L121.405 102.381C122.155 103.191 123.222 103.651 124.411 103.674C124.442 103.675 124.472 103.675 124.503 103.675C125.781 103.675 127.059 103.157 127.937 102.278C128.837 101.378 129.359 100.06 129.333 98.7515C129.31 97.5627 128.851 96.4955 128.036 95.7415Z" fill="white"/>
<path d="M81.4814 68.4C82.9408 69.7446 84.8369 70.5111 86.8206 70.5587C86.8268 70.5591 86.8331 70.5591 86.839 70.5591L90.3018 70.5699C91.6517 70.574 92.9492 71.1471 93.8598 72.1393L95.3852 73.8137C95.5593 74.0049 95.7976 74.1019 96.0373 74.1019C96.2491 74.1019 96.4618 74.026 96.6306 73.8721C96.9909 73.544 97.017 72.9862 96.6889 72.6263L95.1612 70.9496C93.9172 69.5934 92.1481 68.8125 90.3076 68.8062L86.8542 68.7954C85.3198 68.7564 83.8527 68.1689 82.716 67.1398L72.6807 55.2102C72.5783 55.0882 72.586 54.9113 72.6986 54.7987C72.7758 54.721 72.8665 54.7098 72.9136 54.7098C72.9607 54.7098 73.0514 54.721 73.129 54.7987L82.2636 63.9337C83.1665 64.8367 84.6359 64.8367 85.5388 63.9333L86.6123 62.8602V62.8598L88.5183 60.9538C88.5183 60.9538 88.5188 60.9538 88.5188 60.9533L88.5192 60.9529L89.5923 59.8798C90.4952 58.9769 90.4952 57.5076 89.5923 56.6046L80.4577 47.47C80.3392 47.3515 80.3392 47.1581 80.4577 47.0396C80.5703 46.927 80.7471 46.9194 80.8692 47.0217L92.7988 57.0574C93.8283 58.1937 94.4158 59.6613 94.4548 61.1952L94.4652 64.6491C94.4714 66.4891 95.2528 68.2582 96.6108 69.5049L98.2453 70.9936C98.6057 71.3216 99.163 71.2956 99.4911 70.9357C99.8187 70.5753 99.7927 70.0179 99.4328 69.6898L97.801 68.2035C96.806 67.2906 96.2334 65.9927 96.2289 64.6432L96.2181 61.1804C96.2181 61.1741 96.2181 61.1679 96.2177 61.1616C96.1701 59.1779 95.4036 57.2818 94.059 55.8224C94.0339 55.795 94.007 55.769 93.9782 55.7447L82.0042 45.6722C81.1766 44.9757 79.9757 45.0277 79.2109 45.7925C78.4045 46.5989 78.4045 47.9107 79.2109 48.7167L88.3455 57.8518C88.5609 58.0672 88.5609 58.4177 88.3455 58.6331L87.8954 59.0828L77.7147 48.9025C77.3705 48.5579 76.8122 48.5579 76.468 48.9025C76.1238 49.2468 76.1238 49.805 76.468 50.1493L86.6487 60.33L85.989 60.9892L75.8083 50.809C75.464 50.4648 74.9057 50.4648 74.5615 50.809C74.2169 51.1532 74.2169 51.7115 74.5615 52.0557L84.7418 62.2364L84.2921 62.6865C84.0767 62.902 83.7262 62.902 83.5108 62.6865L74.3757 53.552C73.9853 53.1615 73.466 52.9461 72.9136 52.9461C72.3611 52.9461 71.8419 53.1615 71.4514 53.552C70.6867 54.3167 70.6351 55.5176 71.3312 56.3456L81.4042 68.3193C81.4279 68.348 81.454 68.3749 81.4814 68.4Z" fill="white"/>
</g>
</g>
<defs>
<clipPath id="clip0_4_149">
<rect width="200" height="200" fill="white"/>
</clipPath>
<clipPath id="clip1_4_149">
<rect width="58.8231" height="58.7084" fill="white" transform="translate(70.8415 45.0098)"/>
</clipPath>
</defs>
</svg>
