<svg width="201" height="200" viewBox="0 0 201 200" fill="none" xmlns="http://www.w3.org/2000/svg">
<g clip-path="url(#clip0_3_38)">
<path d="M191.622 135.069H160.736C162.592 134.451 164.445 133.782 166.252 133.059C178.071 128.334 184.065 122.782 184.065 116.553C184.065 106.979 176.309 103.763 169.466 100.926C166.533 99.7111 163.503 98.4528 161.02 96.7451C159.684 95.8277 157.855 96.1656 156.938 97.5003C156.019 98.8365 156.357 100.664 157.693 101.582C160.684 103.64 164.006 105.018 167.217 106.349C174.228 109.256 178.194 111.162 178.194 116.553C178.194 119.991 173.048 124.02 164.073 127.608C153.321 131.906 140.842 134.234 135.734 135.069H126.121C132.705 129.934 137.372 122.899 140.357 113.589C143.993 102.257 149.176 93.9335 157.166 86.6026C159.383 84.5676 160.369 81.6949 160.023 78.9689L176.764 66.5148C177.22 66.1769 177.847 66.1647 178.325 66.4858C181.952 68.9212 185.682 69.5878 189.111 68.4121C191.816 67.4856 193.935 65.547 195.08 62.9526C196.268 60.2587 196.256 57.1123 195.043 54.3191C193.455 50.659 190.073 48.1684 186.216 47.7205C186.943 43.906 185.578 39.9324 182.562 37.3211C180.261 35.329 177.263 34.3735 174.335 34.7007C171.519 35.0156 169.034 36.4589 167.339 38.7613C165.191 41.6815 164.709 45.4394 165.948 49.6285C166.111 50.1804 165.912 50.7751 165.458 51.1054L148.557 63.3516C146.059 62.2065 143.022 62.286 140.417 63.7919C131.03 69.2194 121.537 71.6717 109.636 71.7466C99.416 71.8108 91.0133 74.3625 83.9484 79.5514C76.0626 85.3397 70.7773 93.695 69.0649 103.075C67.3419 112.518 69.438 121.867 74.9679 129.399C76.5105 131.499 78.2901 133.397 80.2624 135.069H43.0819C20.4944 130.519 9.51413 119.256 9.51413 100.642C9.51413 86.4803 15.8421 71.8827 26.8774 60.592C38.8041 48.3871 54.7349 41.6662 71.7313 41.6662C91.2029 41.6662 111.445 48.7693 127.269 61.1546C128.545 62.1545 130.391 61.9282 131.389 60.6516C132.389 59.375 132.164 57.5312 130.888 56.5313C114.052 43.354 92.4902 35.7953 71.7313 35.7953C53.1403 35.7953 35.7204 43.1446 22.6792 56.4885C10.5813 68.8662 3.64329 84.9606 3.64329 100.642C3.64329 116.541 10.6654 128.062 24.5459 135.069H7.98679C3.36656 135.069 -0.391388 138.827 -0.391388 143.447C-0.391388 148.068 3.36656 151.827 7.98679 151.827H18.6308C18.7959 151.827 18.9426 151.925 19.0053 152.078L20.869 156.64C23.0721 162.034 28.2595 165.518 34.086 165.518H165.523C171.349 165.518 176.537 162.034 178.74 156.64L180.603 152.079C180.666 151.926 180.813 151.827 180.978 151.827H191.622C196.241 151.827 200 148.068 200 143.447C200 138.829 196.242 135.069 191.622 135.069ZM168.907 55.8556C171.369 54.0637 172.442 50.8929 171.577 47.9636C171.091 46.3185 170.78 43.9885 172.068 42.2395C172.98 40.9981 174.159 40.6281 174.988 40.5348C176.295 40.3896 177.653 40.836 178.72 41.7594C180.626 43.4106 180.79 45.6427 180.307 47.1808C179.845 48.6516 180.12 50.2706 181.044 51.5182C181.956 52.7703 183.418 53.5164 184.958 53.5164H184.959C186.572 53.5164 188.653 54.342 189.657 56.6567C190.218 57.9501 190.238 59.3827 189.708 60.5828C189.371 61.3442 188.663 62.3578 187.206 62.8578C185.153 63.561 183.022 62.5688 181.597 61.6117C179.064 59.9101 175.717 59.9835 173.265 61.7998L157.392 73.6072L152.882 67.4658L168.907 55.8556ZM79.7013 125.925C75.1361 119.707 73.41 111.966 74.841 104.129C76.2827 96.2298 80.7516 89.1802 87.422 84.2833C93.4549 79.8526 100.734 77.6725 109.673 77.6174C122.65 77.5349 133.037 74.8395 143.356 68.8738C144.492 68.218 145.834 68.3143 146.688 69.0527C146.701 69.0634 146.713 69.0726 146.725 69.0833C146.843 69.1903 146.953 69.3096 147.049 69.4411L153.761 78.5837C153.854 78.7106 153.938 78.8527 154.007 79.0072C154.01 79.0133 154.013 79.0179 154.016 79.0224C154.478 80.0636 154.169 81.3845 153.195 82.2774C144.415 90.3345 138.731 99.4389 134.768 111.795C132.037 120.308 127.776 126.599 121.744 131.028C119.493 132.681 117.039 134.04 114.448 135.069H91.3879C86.7019 133.121 82.6703 129.969 79.7013 125.925ZM191.622 145.956H62.2095C60.5889 145.956 59.2741 147.269 59.2741 148.892C59.2741 150.512 60.5889 151.827 62.2095 151.827H174.364L173.306 154.42C172.008 157.595 168.953 159.647 165.523 159.647H34.086C30.6553 159.647 27.6006 157.595 26.3026 154.42L25.2446 151.827H48.5522C50.1728 151.827 51.4876 150.512 51.4876 148.892C51.4876 147.269 50.1728 145.956 48.5522 145.956H7.98679C6.60317 145.956 5.47945 144.831 5.47945 143.447C5.47945 142.065 6.60317 140.94 7.98679 140.94H191.622C193.004 140.94 194.129 142.065 194.129 143.447C194.129 144.831 193.004 145.956 191.622 145.956Z" fill="white"/>
</g>
<defs>
<clipPath id="clip0_3_38">
<rect width="200.391" height="200" fill="white"/>
</clipPath>
</defs>
</svg>
