<svg width="200" height="200" viewBox="0 0 200 200" fill="none" xmlns="http://www.w3.org/2000/svg">
<path d="M185.999 90.3762L180.82 69.6594C182.236 69.3586 183.298 68.1023 183.298 66.5973V63.257C183.298 56.0047 177.398 50.1047 170.146 50.1047H146.555V43.2148C146.555 39.6461 143.652 36.743 140.084 36.743H19.8328C16.2641 36.743 13.3609 39.6461 13.3609 43.2148V100C13.3609 101.729 14.7629 103.132 16.4926 103.132C18.2219 103.132 19.6242 101.73 19.6242 100V43.2148C19.6242 43.0996 19.7176 43.0062 19.8328 43.0062H140.083C140.198 43.0062 140.292 43.0996 140.292 43.2148V100.001C140.292 101.73 141.694 103.132 143.423 103.132C145.153 103.132 146.555 101.73 146.555 100.001V96.4508H183.496C183.499 96.4508 183.502 96.4516 183.504 96.4516C183.507 96.4516 183.51 96.4512 183.513 96.4512C188.059 96.4543 191.918 99.4379 193.244 103.549H183.507C181.777 103.549 180.375 104.951 180.375 106.681V113.361C180.375 118.772 184.777 123.173 190.187 123.173H193.736V136.952H185.548C182.858 129.185 175.475 123.591 166.805 123.591C158.135 123.591 150.752 129.185 148.062 136.952H146.554V113.361C146.554 111.632 145.152 110.229 143.423 110.229C141.693 110.229 140.291 111.631 140.291 113.361V136.951H75.3191C72.6293 129.184 65.2461 123.59 56.5762 123.59C47.9063 123.59 40.5227 129.184 37.8332 136.951H19.8328C19.7176 136.951 19.6242 136.858 19.6242 136.743V129.853H33.1941C34.9234 129.853 36.3258 128.451 36.3258 126.721C36.3258 124.992 34.9238 123.59 33.1941 123.59H3.13164C1.40234 123.59 0 124.992 0 126.721C0 128.451 1.40195 129.853 3.13164 129.853H13.3613V136.743C13.3613 140.311 16.2645 143.214 19.8332 143.214H36.7488C36.748 143.284 36.7434 143.353 36.7434 143.423C36.7434 154.359 45.6406 163.256 56.5762 163.256C67.5117 163.256 76.409 154.359 76.409 143.423C76.409 143.353 76.4043 143.284 76.4035 143.214H146.978C146.977 143.284 146.972 143.353 146.972 143.423C146.972 154.359 155.87 163.256 166.805 163.256C177.741 163.256 186.638 154.359 186.638 143.423C186.638 143.353 186.633 143.284 186.632 143.214H196.868C198.597 143.214 200 141.812 200 140.083V106.68C200 98.4332 193.915 91.5812 185.999 90.3762ZM146.555 56.3676H170.146C173.945 56.3676 177.036 59.4582 177.036 63.257V63.4656H146.555V56.3676ZM146.555 90.1879V69.7285H174.382L179.496 90.1879H146.555ZM56.5762 156.994C49.0938 156.994 43.0062 150.907 43.0062 143.424C43.0062 135.941 49.0938 129.854 56.5762 129.854C64.0586 129.854 70.1461 135.941 70.1461 143.424C70.1461 150.907 64.0586 156.994 56.5762 156.994ZM166.806 156.994C159.323 156.994 153.236 150.907 153.236 143.424C153.236 135.941 159.323 129.854 166.806 129.854C174.288 129.854 180.376 135.941 180.376 143.424C180.376 150.907 174.288 156.994 166.806 156.994ZM193.737 116.91H190.188C188.231 116.91 186.639 115.318 186.639 113.361V109.812H193.737V116.91H193.737Z" fill="white"/>
<path d="M56.5762 136.952C53.0074 136.952 50.1043 139.855 50.1043 143.424C50.1043 146.993 53.0074 149.896 56.5762 149.896C60.1449 149.896 63.0481 146.993 63.0481 143.424C63.0481 139.855 60.1449 136.952 56.5762 136.952Z" fill="white"/>
<path d="M166.806 136.952C163.237 136.952 160.334 139.855 160.334 143.424C160.334 146.993 163.237 149.896 166.806 149.896C170.375 149.896 173.278 146.993 173.278 143.424C173.278 139.855 170.375 136.952 166.806 136.952Z" fill="white"/>
<path d="M130.062 123.591H83.2984C81.5692 123.591 80.1668 124.993 80.1668 126.723C80.1668 128.452 81.5688 129.854 83.2984 129.854H130.062C131.792 129.854 133.194 128.452 133.194 126.723C133.194 124.993 131.792 123.591 130.062 123.591Z" fill="white"/>
<path d="M49.8957 110.23H9.81212C8.08282 110.23 6.68048 111.632 6.68048 113.361C6.68048 115.091 8.08243 116.493 9.81212 116.493H49.8957C51.625 116.493 53.0274 115.091 53.0274 113.361C53.0274 111.632 51.625 110.23 49.8957 110.23Z" fill="white"/>
<path d="M108.895 67.7226C107.672 66.5 105.689 66.5 104.466 67.723L76.618 95.5711L62.1309 81.084C60.9078 79.8609 58.925 79.8609 57.7023 81.084C56.4793 82.307 56.4793 84.2894 57.7023 85.5125L74.4039 102.214C75.0152 102.826 75.8168 103.131 76.618 103.131C77.4191 103.131 78.2211 102.826 78.832 102.214L108.895 72.1515C110.118 70.9281 110.118 68.9457 108.895 67.7226Z" fill="white"/>
</svg>
