<svg width="200" height="200" viewBox="0 0 200 200" fill="none" xmlns="http://www.w3.org/2000/svg">
<g clip-path="url(#clip0_4_202)">
<path d="M194.691 68.6352L131.361 5.30547C127.942 1.88712 123.383 0.00430298 118.523 0.00430298C113.663 0.00430298 109.104 1.88633 105.685 5.30469L5.30117 105.689C1.88281 109.107 0 113.666 0 118.526C0 123.386 1.88281 127.946 5.30117 131.364L13.1105 139.173C13.1113 139.173 13.1117 139.174 13.1125 139.175C13.1133 139.176 13.1141 139.177 13.1148 139.177L65.5992 191.662H58.332C56.0312 191.662 54.1656 193.527 54.1656 195.828C54.1656 198.129 56.0312 199.995 58.332 199.995H81.4527C81.4582 199.995 81.4633 199.995 81.4688 199.995C81.4742 199.995 81.4793 199.995 81.4848 199.995L141.662 199.995C143.962 199.995 145.828 198.13 145.828 195.829C145.828 193.528 143.962 191.663 141.662 191.663L97.3398 191.662L194.691 94.3102C201.77 87.2313 201.77 75.7133 194.691 68.6352ZM188.799 88.418L88.4145 188.802C86.5734 190.643 84.1125 191.658 81.484 191.662H81.4523C78.8246 191.657 76.3644 190.643 74.5242 188.802L21.9512 136.229L118.355 39.8238C119.982 38.1969 119.982 35.5586 118.355 33.9316C116.728 32.3047 114.091 32.3047 112.463 33.932L16.0586 130.337L11.193 125.471C9.34883 123.627 8.3332 121.161 8.3332 118.527C8.3332 115.892 9.34883 113.425 11.1934 111.581L111.577 11.1973C113.421 9.35313 115.888 8.33751 118.523 8.33751C121.157 8.33751 123.624 9.35313 125.468 11.1977L148.009 33.7375L51.6031 130.144C49.9762 131.77 49.9762 134.409 51.6031 136.036C52.4168 136.85 53.4832 137.256 54.5492 137.256C55.6152 137.256 56.6816 136.849 57.4953 136.036L153.901 39.6301L188.799 74.527C192.628 78.3566 192.628 84.5883 188.799 88.418Z" fill="white"/>
<path d="M102.657 120.338C101.03 118.711 98.3921 118.711 96.764 120.338L63.9773 153.124C62.3503 154.751 62.3503 157.389 63.9773 159.016C64.791 159.83 65.8574 160.237 66.9234 160.237C67.9894 160.237 69.0558 159.83 69.8695 159.016L102.656 126.23C104.284 124.602 104.284 121.964 102.657 120.338Z" fill="white"/>
<path d="M89.209 151.461L75.7617 164.909C74.1348 166.536 74.1348 169.174 75.7617 170.801C76.5754 171.614 77.6418 172.021 78.7078 172.021C79.7746 172.021 80.8402 171.614 81.6539 170.801L95.1012 157.354C96.7281 155.727 96.7281 153.089 95.1012 151.461C93.4742 149.834 90.8371 149.834 89.209 151.461Z" fill="white"/>
<path d="M101.584 139.088L99.816 140.855C98.1887 142.482 98.1887 145.12 99.8156 146.748C100.629 147.561 101.696 147.968 102.762 147.968C103.828 147.968 104.894 147.561 105.707 146.748L107.475 144.98C109.102 143.354 109.102 140.716 107.475 139.088C105.849 137.461 103.211 137.461 101.584 139.088Z" fill="white"/>
<path d="M159.013 63.9816C158.232 63.2004 157.172 62.7613 156.067 62.7613C154.962 62.7613 153.902 63.2004 153.121 63.9816L135.443 81.659C134.662 82.4406 134.223 83.5 134.223 84.6051C134.223 85.7101 134.662 86.7699 135.443 87.5512L147.228 99.3351C148.042 100.149 149.108 100.555 150.174 100.555C151.241 100.555 152.307 100.148 153.12 99.3351L170.797 81.6586C172.424 80.0316 172.424 77.3934 170.797 75.7664L159.013 63.9816ZM150.174 90.4973L144.281 84.6051L156.066 72.8203L161.959 78.7129L150.174 90.4973Z" fill="white"/>
<path d="M125.132 31.3227C126.199 31.3227 127.266 30.9156 128.079 30.1016L129.846 28.3332C131.473 26.7059 131.473 24.0676 129.845 22.441C128.218 20.8145 125.58 20.8149 123.953 22.4422L122.186 24.2106C120.559 25.8379 120.559 28.4762 122.187 30.1028C123 30.9164 124.066 31.3227 125.132 31.3227Z" fill="white"/>
<path d="M41.8809 139.866L40.1133 141.634C38.4863 143.26 38.4863 145.898 40.1133 147.526C40.927 148.339 41.9934 148.746 43.0594 148.746C44.1254 148.746 45.1918 148.339 46.0055 147.526L47.773 145.759C49.4 144.131 49.4 141.493 47.773 139.866C46.1457 138.239 43.5082 138.239 41.8809 139.866Z" fill="white"/>
</g>
<defs>
<clipPath id="clip0_4_202">
<rect width="200" height="200" fill="white"/>
</clipPath>
</defs>
</svg>
